{
    "asset" : {
        "generator" : "Khronos glTF Blender I/O v1.4.40",
        "version" : "2.0"
    },
    "scene" : 0,
    "scenes" : [
        {
            "name" : "Scene",
            "nodes" : [
                5
            ]
        }
    ],
    "nodes" : [
        {
            "name" : "eegawl",
            "rotation" : [
                0,
                1,
                0,
                -1.6292068494294654e-07
            ],
            "translation" : [
                -38.84235763549805,
                9.693317413330078,
                8.176815032958984
            ]
        },
        {
            "mesh" : 0,
            "name" : "hawgash",
            "rotation" : [
                0,
                0.0031641290988773108,
                0,
                0.9999950528144836
            ],
            "scale" : [
                3.1581954956054688,
                0.9055308103561401,
                0.9055876135826111
            ],
            "translation" : [
                2.8896026611328125,
                -0.1564311981201172,
                -0.037186622619628906
            ]
        },
        {
            "children" : [
                1
            ],
            "mesh" : 1,
            "name" : "frame",
            "rotation" : [
                0,
                0.6982710361480713,
                0,
                0.7158334851264954
            ],
            "scale" : [
                0.28672266006469727,
                1,
                1
            ],
            "translation" : [
                -41.038116455078125,
                10.637686729431152,
                -13.466512680053711
            ]
        },
        {
            "children" : [
                0,
                2
            ],
            "mesh" : 2,
            "name" : "Cube",
            "scale" : [
                0.00907367467880249,
                0.00907367467880249,
                0.00907367467880249
            ],
            "translation" : [
                0.3099203407764435,
                0.010853701271116734,
                0.025612641125917435
            ]
        },
        {
            "mesh" : 3,
            "name" : "Cube.001",
            "scale" : [
                0.009073672816157341,
                0.009073672816157341,
                0.009073672816157341
            ],
            "translation" : [
                -0.03487261012196541,
                0.024491434916853905,
                -0.04874066635966301
            ]
        },
        {
            "children" : [
                3,
                4
            ],
            "mesh" : 4,
            "name" : "Plane.001",
            "scale" : [
                110.20895385742188,
                110.20895385742188,
                110.20895385742188
            ]
        }
    ],
    "materials" : [
        {
            "doubleSided" : true,
            "name" : "Material.002",
            "pbrMetallicRoughness" : {
                "baseColorFactor" : [
                    0,
                    0.008345703594386578,
                    0.25994235277175903,
                    1
                ],
                "metallicFactor" : 0,
                "roughnessFactor" : 0.5
            }
        },
        {
            "doubleSided" : true,
            "name" : "Material.003",
            "pbrMetallicRoughness" : {
                "baseColorTexture" : {
                    "index" : 0,
                    "texCoord" : 0
                },
                "metallicFactor" : 0,
                "roughnessFactor" : 0.5
            }
        },
        {
            "doubleSided" : true,
            "name" : "Material.001",
            "pbrMetallicRoughness" : {
                "baseColorFactor" : [
                    0.8000000715255737,
                    0.19684456288814545,
                    0.02560190111398697,
                    1
                ],
                "metallicFactor" : 0,
                "roughnessFactor" : 0.5
            }
        },
        {
            "doubleSided" : true,
            "name" : "Material",
            "pbrMetallicRoughness" : {
                "baseColorFactor" : [
                    0,
                    0.06565655767917633,
                    0.8000000715255737,
                    1
                ],
                "metallicFactor" : 0,
                "roughnessFactor" : 0.5
            }
        },
        {
            "doubleSided" : true,
            "name" : "Material.004",
            "pbrMetallicRoughness" : {
                "baseColorFactor" : [
                    0.8000000715255737,
                    0.41810283064842224,
                    0.06976651400327682,
                    1
                ],
                "metallicFactor" : 0,
                "roughnessFactor" : 0.5
            }
        }
    ],
    "meshes" : [
        {
            "name" : "Cube.002",
            "primitives" : [
                {
                    "attributes" : {
                        "POSITION" : 0,
                        "NORMAL" : 1,
                        "TEXCOORD_0" : 2
                    },
                    "indices" : 3
                }
            ]
        },
        {
            "name" : "Cube",
            "primitives" : [
                {
                    "attributes" : {
                        "POSITION" : 4,
                        "NORMAL" : 5,
                        "TEXCOORD_0" : 6
                    },
                    "indices" : 7,
                    "material" : 0
                },
                {
                    "attributes" : {
                        "POSITION" : 8,
                        "NORMAL" : 9,
                        "TEXCOORD_0" : 10
                    },
                    "indices" : 11,
                    "material" : 1
                }
            ]
        },
        {
            "name" : "Cube.001",
            "primitives" : [
                {
                    "attributes" : {
                        "POSITION" : 12,
                        "NORMAL" : 13,
                        "TEXCOORD_0" : 14
                    },
                    "indices" : 15,
                    "material" : 2
                }
            ]
        },
        {
            "name" : "Cube.003",
            "primitives" : [
                {
                    "attributes" : {
                        "POSITION" : 16,
                        "NORMAL" : 17,
                        "TEXCOORD_0" : 18
                    },
                    "indices" : 19,
                    "material" : 3
                }
            ]
        },
        {
            "name" : "Plane",
            "primitives" : [
                {
                    "attributes" : {
                        "POSITION" : 20,
                        "NORMAL" : 21,
                        "TEXCOORD_0" : 22
                    },
                    "indices" : 23,
                    "material" : 4
                }
            ]
        }
    ],
    "textures" : [
        {
            "sampler" : 0,
            "source" : 0
        }
    ],
    "images" : [
        {
            "bufferView" : 12,
            "mimeType" : "image/jpeg",
            "name" : "5752-03-24 (023)"
        }
    ],
    "accessors" : [
        {
            "bufferView" : 0,
            "componentType" : 5126,
            "count" : 24,
            "max" : [
                0.9999990463256836,
                1,
                0.9999942779541016
            ],
            "min" : [
                -1.0000019073486328,
                -1,
                -1.0000057220458984
            ],
            "type" : "VEC3"
        },
        {
            "bufferView" : 1,
            "componentType" : 5126,
            "count" : 24,
            "type" : "VEC3"
        },
        {
            "bufferView" : 2,
            "componentType" : 5126,
            "count" : 24,
            "type" : "VEC2"
        },
        {
            "bufferView" : 3,
            "componentType" : 5123,
            "count" : 36,
            "type" : "SCALAR"
        },
        {
            "bufferView" : 4,
            "componentType" : 5126,
            "count" : 52,
            "max" : [
                1.0374946594238281,
                0.9897422790527344,
                0.9991741180419922
            ],
            "min" : [
                -1.0323143005371094,
                -1.0513883829116821,
                -1.0005722045898438
            ],
            "type" : "VEC3"
        },
        {
            "bufferView" : 5,
            "componentType" : 5126,
            "count" : 52,
            "type" : "VEC3"
        },
        {
            "bufferView" : 6,
            "componentType" : 5126,
            "count" : 52,
            "type" : "VEC2"
        },
        {
            "bufferView" : 7,
            "componentType" : 5123,
            "count" : 78,
            "type" : "SCALAR"
        },
        {
            "bufferView" : 8,
            "componentType" : 5126,
            "count" : 4,
            "max" : [
                0.46738433837890625,
                0.8387010097503662,
                0.8506860733032227
            ],
            "min" : [
                0.44773292541503906,
                -0.8955832719802856,
                -0.8520517349243164
            ],
            "type" : "VEC3"
        },
        {
            "bufferView" : 9,
            "componentType" : 5126,
            "count" : 4,
            "type" : "VEC3"
        },
        {
            "bufferView" : 10,
            "componentType" : 5126,
            "count" : 4,
            "type" : "VEC2"
        },
        {
            "bufferView" : 11,
            "componentType" : 5123,
            "count" : 6,
            "type" : "SCALAR"
        },
        {
            "bufferView" : 13,
            "componentType" : 5126,
            "count" : 1128,
            "max" : [
                15.964313507080078,
                21.570648193359375,
                56.86956024169922
            ],
            "min" : [
                -42.63913345336914,
                -2.316957473754883,
                -22.33660888671875
            ],
            "type" : "VEC3"
        },
        {
            "bufferView" : 14,
            "componentType" : 5126,
            "count" : 1128,
            "type" : "VEC3"
        },
        {
            "bufferView" : 15,
            "componentType" : 5126,
            "count" : 1128,
            "type" : "VEC2"
        },
        {
            "bufferView" : 16,
            "componentType" : 5123,
            "count" : 1692,
            "type" : "SCALAR"
        },
        {
            "bufferView" : 17,
            "componentType" : 5126,
            "count" : 152,
            "max" : [
                3.227917432785034,
                6.514326095581055,
                6.084445953369141
            ],
            "min" : [
                -1.1593658924102783,
                -3.4617037773132324,
                -11.386446952819824
            ],
            "type" : "VEC3"
        },
        {
            "bufferView" : 18,
            "componentType" : 5126,
            "count" : 152,
            "type" : "VEC3"
        },
        {
            "bufferView" : 19,
            "componentType" : 5126,
            "count" : 152,
            "type" : "VEC2"
        },
        {
            "bufferView" : 20,
            "componentType" : 5123,
            "count" : 228,
            "type" : "SCALAR"
        },
        {
            "bufferView" : 21,
            "componentType" : 5126,
            "count" : 132,
            "max" : [
                4.0980544090271,
                0.1663530468940735,
                4.332396030426025
            ],
            "min" : [
                -3.431605339050293,
                -0.31268101930618286,
                -4.27826452255249
            ],
            "type" : "VEC3"
        },
        {
            "bufferView" : 22,
            "componentType" : 5126,
            "count" : 132,
            "type" : "VEC3"
        },
        {
            "bufferView" : 23,
            "componentType" : 5126,
            "count" : 132,
            "type" : "VEC2"
        },
        {
            "bufferView" : 24,
            "componentType" : 5123,
            "count" : 660,
            "type" : "SCALAR"
        }
    ],
    "bufferViews" : [
        {
            "buffer" : 0,
            "byteLength" : 288,
            "byteOffset" : 0
        },
        {
            "buffer" : 0,
            "byteLength" : 288,
            "byteOffset" : 288
        },
        {
            "buffer" : 0,
            "byteLength" : 192,
            "byteOffset" : 576
        },
        {
            "buffer" : 0,
            "byteLength" : 72,
            "byteOffset" : 768
        },
        {
            "buffer" : 0,
            "byteLength" : 624,
            "byteOffset" : 840
        },
        {
            "buffer" : 0,
            "byteLength" : 624,
            "byteOffset" : 1464
        },
        {
            "buffer" : 0,
            "byteLength" : 416,
            "byteOffset" : 2088
        },
        {
            "buffer" : 0,
            "byteLength" : 156,
            "byteOffset" : 2504
        },
        {
            "buffer" : 0,
            "byteLength" : 48,
            "byteOffset" : 2660
        },
        {
            "buffer" : 0,
            "byteLength" : 48,
            "byteOffset" : 2708
        },
        {
            "buffer" : 0,
            "byteLength" : 32,
            "byteOffset" : 2756
        },
        {
            "buffer" : 0,
            "byteLength" : 12,
            "byteOffset" : 2788
        },
        {
            "buffer" : 0,
            "byteLength" : 455497,
            "byteOffset" : 2800
        },
        {
            "buffer" : 0,
            "byteLength" : 13536,
            "byteOffset" : 458300
        },
        {
            "buffer" : 0,
            "byteLength" : 13536,
            "byteOffset" : 471836
        },
        {
            "buffer" : 0,
            "byteLength" : 9024,
            "byteOffset" : 485372
        },
        {
            "buffer" : 0,
            "byteLength" : 3384,
            "byteOffset" : 494396
        },
        {
            "buffer" : 0,
            "byteLength" : 1824,
            "byteOffset" : 497780
        },
        {
            "buffer" : 0,
            "byteLength" : 1824,
            "byteOffset" : 499604
        },
        {
            "buffer" : 0,
            "byteLength" : 1216,
            "byteOffset" : 501428
        },
        {
            "buffer" : 0,
            "byteLength" : 456,
            "byteOffset" : 502644
        },
        {
            "buffer" : 0,
            "byteLength" : 1584,
            "byteOffset" : 503100
        },
        {
            "buffer" : 0,
            "byteLength" : 1584,
            "byteOffset" : 504684
        },
        {
            "buffer" : 0,
            "byteLength" : 1056,
            "byteOffset" : 506268
        },
        {
            "buffer" : 0,
            "byteLength" : 1320,
            "byteOffset" : 507324
        }
    ],
    "samplers" : [
        {
            "magFilter" : 9729,
            "minFilter" : 9986
        }
    ],
    "buffers" : [
        {
            "byteLength" : 508644,
            "uri" : "data:application/octet-stream;base64,"
        }
    ]
}
