{
    "asset" : {
        "generator" : "Khronos glTF Blender I/O v1.4.40",
        "version" : "2.0"
    },
    "scene" : 0,
    "scenes" : [
        {
            "name" : "Scene",
            "nodes" : [
                0
            ]
        }
    ],
    "nodes" : [
        {
            "mesh" : 0,
            "name" : "Cube",
            "scale" : [
                38.302799224853516,
                0.29794859886169434,
                -23.429800033569336
            ]
        }
    ],
    "materials" : [
        {
            "doubleSided" : true,
            "name" : "Material",
            "pbrMetallicRoughness" : {
                "baseColorFactor" : [
                    0,
                    0.008588719181716442,
                    0.8000000715255737,
                    1
                ],
                "metallicFactor" : 0,
                "roughnessFactor" : 0.4000000059604645
            }
        },
        {
            "doubleSided" : true,
            "name" : "red",
            "pbrMetallicRoughness" : {
                "baseColorFactor" : [
                    0.8000000715255737,
                    0,
                    0.003907752688974142,
                    1
                ],
                "metallicFactor" : 0,
                "roughnessFactor" : 0.5
            }
        },
        {
            "doubleSided" : true,
            "name" : "g",
            "pbrMetallicRoughness" : {
                "baseColorFactor" : [
                    0.8000000715255737,
                    0.5708807110786438,
                    0.021959753707051277,
                    1
                ],
                "metallicFactor" : 0,
                "roughnessFactor" : 0.5
            }
        },
        {
            "doubleSided" : true,
            "name" : "Material.002",
            "pbrMetallicRoughness" : {
                "baseColorFactor" : [
                    0.8000000715255737,
                    0.2958238422870636,
                    0.4488857388496399,
                    1
                ],
                "metallicFactor" : 0,
                "roughnessFactor" : 0.5
            }
        }
    ],
    "meshes" : [
        {
            "name" : "Cube",
            "primitives" : [
                {
                    "attributes" : {
                        "POSITION" : 0,
                        "NORMAL" : 1,
                        "TEXCOORD_0" : 2
                    },
                    "indices" : 3,
                    "material" : 0
                },
                {
                    "attributes" : {
                        "POSITION" : 4,
                        "NORMAL" : 5,
                        "TEXCOORD_0" : 6
                    },
                    "indices" : 7,
                    "material" : 1
                },
                {
                    "attributes" : {
                        "POSITION" : 8,
                        "NORMAL" : 9,
                        "TEXCOORD_0" : 10
                    },
                    "indices" : 11,
                    "material" : 2
                },
                {
                    "attributes" : {
                        "POSITION" : 12,
                        "NORMAL" : 13,
                        "TEXCOORD_0" : 14
                    },
                    "indices" : 15,
                    "material" : 3
                }
            ]
        }
    ],
    "accessors" : [
        {
            "bufferView" : 0,
            "componentType" : 5126,
            "count" : 360,
            "max" : [
                4.268555641174316,
                13.867789268493652,
                4.268557548522949
            ],
            "min" : [
                -4.268555641174316,
                -54.904388427734375,
                -4.268557548522949
            ],
            "type" : "VEC3"
        },
        {
            "bufferView" : 1,
            "componentType" : 5126,
            "count" : 360,
            "type" : "VEC3"
        },
        {
            "bufferView" : 2,
            "componentType" : 5126,
            "count" : 360,
            "type" : "VEC2"
        },
        {
            "bufferView" : 3,
            "componentType" : 5123,
            "count" : 552,
            "type" : "SCALAR"
        },
        {
            "bufferView" : 4,
            "componentType" : 5126,
            "count" : 4,
            "max" : [
                1,
                1,
                1
            ],
            "min" : [
                -1,
                1,
                -1
            ],
            "type" : "VEC3"
        },
        {
            "bufferView" : 5,
            "componentType" : 5126,
            "count" : 4,
            "type" : "VEC3"
        },
        {
            "bufferView" : 6,
            "componentType" : 5126,
            "count" : 4,
            "type" : "VEC2"
        },
        {
            "bufferView" : 7,
            "componentType" : 5123,
            "count" : 6,
            "type" : "SCALAR"
        },
        {
            "bufferView" : 8,
            "componentType" : 5126,
            "count" : 394,
            "max" : [
                4.0284624099731445,
                28.73533821105957,
                4.028463840484619
            ],
            "min" : [
                -4.0284624099731445,
                -41.1261100769043,
                -4.028463840484619
            ],
            "type" : "VEC3"
        },
        {
            "bufferView" : 9,
            "componentType" : 5126,
            "count" : 394,
            "type" : "VEC3"
        },
        {
            "bufferView" : 10,
            "componentType" : 5126,
            "count" : 394,
            "type" : "VEC2"
        },
        {
            "bufferView" : 11,
            "componentType" : 5123,
            "count" : 630,
            "type" : "SCALAR"
        },
        {
            "bufferView" : 12,
            "componentType" : 5126,
            "count" : 16,
            "max" : [
                4.0284624099731445,
                -4.571544647216797,
                4.028463840484619
            ],
            "min" : [
                -4.0284624099731445,
                -19.09992027282715,
                -4.028463840484619
            ],
            "type" : "VEC3"
        },
        {
            "bufferView" : 13,
            "componentType" : 5126,
            "count" : 16,
            "type" : "VEC3"
        },
        {
            "bufferView" : 14,
            "componentType" : 5126,
            "count" : 16,
            "type" : "VEC2"
        },
        {
            "bufferView" : 15,
            "componentType" : 5123,
            "count" : 24,
            "type" : "SCALAR"
        }
    ],
    "bufferViews" : [
        {
            "buffer" : 0,
            "byteLength" : 4320,
            "byteOffset" : 0
        },
        {
            "buffer" : 0,
            "byteLength" : 4320,
            "byteOffset" : 4320
        },
        {
            "buffer" : 0,
            "byteLength" : 2880,
            "byteOffset" : 8640
        },
        {
            "buffer" : 0,
            "byteLength" : 1104,
            "byteOffset" : 11520
        },
        {
            "buffer" : 0,
            "byteLength" : 48,
            "byteOffset" : 12624
        },
        {
            "buffer" : 0,
            "byteLength" : 48,
            "byteOffset" : 12672
        },
        {
            "buffer" : 0,
            "byteLength" : 32,
            "byteOffset" : 12720
        },
        {
            "buffer" : 0,
            "byteLength" : 12,
            "byteOffset" : 12752
        },
        {
            "buffer" : 0,
            "byteLength" : 4728,
            "byteOffset" : 12764
        },
        {
            "buffer" : 0,
            "byteLength" : 4728,
            "byteOffset" : 17492
        },
        {
            "buffer" : 0,
            "byteLength" : 3152,
            "byteOffset" : 22220
        },
        {
            "buffer" : 0,
            "byteLength" : 1260,
            "byteOffset" : 25372
        },
        {
            "buffer" : 0,
            "byteLength" : 192,
            "byteOffset" : 26632
        },
        {
            "buffer" : 0,
            "byteLength" : 192,
            "byteOffset" : 26824
        },
        {
            "buffer" : 0,
            "byteLength" : 128,
            "byteOffset" : 27016
        },
        {
            "buffer" : 0,
            "byteLength" : 48,
            "byteOffset" : 27144
        }
    ],
    "buffers" : [
        {
            "byteLength" : 27192,
            "uri" : "data:application/octet-stream;base64,"
        }
    ]
}
