{
    "asset" : {
        "generator" : "Khronos glTF Blender I/O v1.4.40",
        "version" : "2.0"
    },
    "scene" : 0,
    "scenes" : [
        {
            "name" : "Scene",
            "nodes" : [
                6
            ]
        }
    ],
    "nodes" : [
        {
            "mesh" : 0,
            "name" : "Cylinder.029",
            "scale" : [
                3.812298536300659,
                4.54396390914917,
                3.812298536300659
            ],
            "translation" : [
                0,
                15.90837287902832,
                4.291534423828125e-06
            ]
        },
        {
            "children" : [
                0
            ],
            "mesh" : 1,
            "name" : "Cylinder.030",
            "scale" : [
                0.48212385177612305,
                0.503685474395752,
                0.48212385177612305
            ],
            "translation" : [
                -7.877035140991211,
                1.179919958114624,
                1.687734603881836
            ]
        },
        {
            "mesh" : 2,
            "name" : "Cylinder.032",
            "scale" : [
                3.812298536300659,
                4.543956279754639,
                3.812298536300659
            ],
            "translation" : [
                -0.060645103454589844,
                -0.20691652595996857,
                -0.012220382690429688
            ]
        },
        {
            "children" : [
                2
            ],
            "mesh" : 3,
            "name" : "Cylinder.031",
            "scale" : [
                0.48212385177612305,
                0.503685474395752,
                0.48212385177612305
            ],
            "translation" : [
                6.580810070037842,
                9.296961784362793,
                1.6936378479003906
            ]
        },
        {
            "mesh" : 4,
            "name" : "giveel",
            "translation" : [
                -0.0026472434401512146,
                0.23703595995903015,
                -0.005961313843727112
            ]
        },
        {
            "children" : [
                4
            ],
            "mesh" : 5,
            "name" : "Plane.014",
            "rotation" : [
                0.7071068286895752,
                0,
                0,
                0.7071067094802856
            ],
            "scale" : [
                7.2211713790893555,
                0.774756908416748,
                5.7218122482299805
            ],
            "translation" : [
                -0.7526931762695312,
                9.205073356628418,
                0.3348197937011719
            ]
        },
        {
            "children" : [
                1,
                3,
                5
            ],
            "name" : "Empty"
        }
    ],
    "animations" : [
        {
            "channels" : [
                {
                    "sampler" : 0,
                    "target" : {
                        "node" : 1,
                        "path" : "translation"
                    }
                }
            ],
            "name" : "royl1",
            "samplers" : [
                {
                    "input" : 19,
                    "interpolation" : "LINEAR",
                    "output" : 20
                }
            ]
        },
        {
            "channels" : [
                {
                    "sampler" : 0,
                    "target" : {
                        "node" : 3,
                        "path" : "translation"
                    }
                }
            ],
            "name" : "royl2",
            "samplers" : [
                {
                    "input" : 19,
                    "interpolation" : "LINEAR",
                    "output" : 21
                }
            ]
        },
        {
            "channels" : [
                {
                    "sampler" : 0,
                    "target" : {
                        "node" : 5,
                        "path" : "scale"
                    }
                },
                {
                    "sampler" : 1,
                    "target" : {
                        "node" : 5,
                        "path" : "translation"
                    }
                }
            ],
            "name" : "oyr",
            "samplers" : [
                {
                    "input" : 19,
                    "interpolation" : "LINEAR",
                    "output" : 22
                },
                {
                    "input" : 19,
                    "interpolation" : "LINEAR",
                    "output" : 23
                }
            ]
        }
    ],
    "materials" : [
        {
            "doubleSided" : true,
            "name" : "sideleft",
            "pbrMetallicRoughness" : {}
        },
        {
            "doubleSided" : true,
            "name" : "doorwood",
            "pbrMetallicRoughness" : {
                "baseColorFactor" : [
                    0.33716365694999695,
                    0.11443537473678589,
                    0.03310476616024971,
                    1
                ],
                "metallicFactor" : 0,
                "roughnessFactor" : 0.5
            }
        },
        {
            "doubleSided" : true,
            "name" : "sideleft.001",
            "pbrMetallicRoughness" : {}
        },
        {
            "doubleSided" : true,
            "name" : "parchment.001",
            "pbrMetallicRoughness" : {
                "metallicFactor" : 0,
                "roughnessFactor" : 0.5
            }
        }
    ],
    "meshes" : [
        {
            "name" : "Cylinder.015",
            "primitives" : [
                {
                    "attributes" : {
                        "POSITION" : 0,
                        "NORMAL" : 1,
                        "TEXCOORD_0" : 2
                    },
                    "indices" : 3,
                    "material" : 0
                }
            ]
        },
        {
            "name" : "Cylinder.005",
            "primitives" : [
                {
                    "attributes" : {
                        "POSITION" : 4,
                        "NORMAL" : 5
                    },
                    "indices" : 6,
                    "material" : 1
                }
            ]
        },
        {
            "name" : "Cylinder.016",
            "primitives" : [
                {
                    "attributes" : {
                        "POSITION" : 7,
                        "NORMAL" : 8,
                        "TEXCOORD_0" : 9
                    },
                    "indices" : 10,
                    "material" : 2
                }
            ]
        },
        {
            "name" : "Cylinder.006",
            "primitives" : [
                {
                    "attributes" : {
                        "POSITION" : 11,
                        "NORMAL" : 12
                    },
                    "indices" : 13,
                    "material" : 1
                }
            ]
        },
        {
            "name" : "Plane.001",
            "primitives" : [
                {
                    "attributes" : {
                        "POSITION" : 14,
                        "NORMAL" : 15
                    },
                    "indices" : 16,
                    "material" : 3
                }
            ]
        },
        {
            "name" : "Plane.017",
            "primitives" : [
                {
                    "attributes" : {
                        "POSITION" : 17,
                        "NORMAL" : 18
                    },
                    "indices" : 16,
                    "material" : 3
                }
            ]
        }
    ],
    "accessors" : [
        {
            "bufferView" : 0,
            "componentType" : 5126,
            "count" : 95,
            "max" : [
                0.7610000371932983,
                2.5,
                0.7610000371932983
            ],
            "min" : [
                -0.7610000371932983,
                -2.5,
                -0.7610000371932983
            ],
            "type" : "VEC3"
        },
        {
            "bufferView" : 1,
            "componentType" : 5126,
            "count" : 95,
            "type" : "VEC3"
        },
        {
            "bufferView" : 2,
            "componentType" : 5126,
            "count" : 95,
            "type" : "VEC2"
        },
        {
            "bufferView" : 3,
            "componentType" : 5123,
            "count" : 372,
            "type" : "SCALAR"
        },
        {
            "bufferView" : 4,
            "componentType" : 5126,
            "count" : 1376,
            "max" : [
                5.141059875488281,
                34.279449462890625,
                5.0204925537109375
            ],
            "min" : [
                -4.921533584594727,
                -3.011226177215576,
                -5.042101860046387
            ],
            "type" : "VEC3"
        },
        {
            "bufferView" : 5,
            "componentType" : 5126,
            "count" : 1376,
            "type" : "VEC3"
        },
        {
            "bufferView" : 6,
            "componentType" : 5123,
            "count" : 8244,
            "type" : "SCALAR"
        },
        {
            "bufferView" : 7,
            "componentType" : 5126,
            "count" : 95,
            "max" : [
                0.7610000371932983,
                2.5,
                0.7610000371932983
            ],
            "min" : [
                -0.7610000371932983,
                -2.5,
                -0.7610000371932983
            ],
            "type" : "VEC3"
        },
        {
            "bufferView" : 8,
            "componentType" : 5126,
            "count" : 95,
            "type" : "VEC3"
        },
        {
            "bufferView" : 9,
            "componentType" : 5126,
            "count" : 95,
            "type" : "VEC2"
        },
        {
            "bufferView" : 10,
            "componentType" : 5123,
            "count" : 372,
            "type" : "SCALAR"
        },
        {
            "bufferView" : 11,
            "componentType" : 5126,
            "count" : 1440,
            "max" : [
                5.03094482421875,
                18.64569854736328,
                5.02987003326416
            ],
            "min" : [
                -5.031648635864258,
                -18.64569854736328,
                -5.032723426818848
            ],
            "type" : "VEC3"
        },
        {
            "bufferView" : 12,
            "componentType" : 5126,
            "count" : 1440,
            "type" : "VEC3"
        },
        {
            "bufferView" : 13,
            "componentType" : 5123,
            "count" : 8514,
            "type" : "SCALAR"
        },
        {
            "bufferView" : 14,
            "componentType" : 5126,
            "count" : 4,
            "max" : [
                1,
                0,
                1
            ],
            "min" : [
                -1,
                0,
                -1
            ],
            "type" : "VEC3"
        },
        {
            "bufferView" : 15,
            "componentType" : 5126,
            "count" : 4,
            "type" : "VEC3"
        },
        {
            "bufferView" : 16,
            "componentType" : 5123,
            "count" : 6,
            "type" : "SCALAR"
        },
        {
            "bufferView" : 17,
            "componentType" : 5126,
            "count" : 4,
            "max" : [
                1,
                0,
                1
            ],
            "min" : [
                -1,
                0,
                -1
            ],
            "type" : "VEC3"
        },
        {
            "bufferView" : 18,
            "componentType" : 5126,
            "count" : 4,
            "type" : "VEC3"
        },
        {
            "bufferView" : 19,
            "componentType" : 5126,
            "count" : 63,
            "max" : [
                2.5833333333333335
            ],
            "min" : [
                0
            ],
            "type" : "SCALAR"
        },
        {
            "bufferView" : 20,
            "componentType" : 5126,
            "count" : 63,
            "type" : "VEC3"
        },
        {
            "bufferView" : 21,
            "componentType" : 5126,
            "count" : 63,
            "type" : "VEC3"
        },
        {
            "bufferView" : 22,
            "componentType" : 5126,
            "count" : 63,
            "type" : "VEC3"
        },
        {
            "bufferView" : 23,
            "componentType" : 5126,
            "count" : 63,
            "type" : "VEC3"
        }
    ],
    "bufferViews" : [
        {
            "buffer" : 0,
            "byteLength" : 1140,
            "byteOffset" : 0
        },
        {
            "buffer" : 0,
            "byteLength" : 1140,
            "byteOffset" : 1140
        },
        {
            "buffer" : 0,
            "byteLength" : 760,
            "byteOffset" : 2280
        },
        {
            "buffer" : 0,
            "byteLength" : 744,
            "byteOffset" : 3040
        },
        {
            "buffer" : 0,
            "byteLength" : 16512,
            "byteOffset" : 3784
        },
        {
            "buffer" : 0,
            "byteLength" : 16512,
            "byteOffset" : 20296
        },
        {
            "buffer" : 0,
            "byteLength" : 16488,
            "byteOffset" : 36808
        },
        {
            "buffer" : 0,
            "byteLength" : 1140,
            "byteOffset" : 53296
        },
        {
            "buffer" : 0,
            "byteLength" : 1140,
            "byteOffset" : 54436
        },
        {
            "buffer" : 0,
            "byteLength" : 760,
            "byteOffset" : 55576
        },
        {
            "buffer" : 0,
            "byteLength" : 744,
            "byteOffset" : 56336
        },
        {
            "buffer" : 0,
            "byteLength" : 17280,
            "byteOffset" : 57080
        },
        {
            "buffer" : 0,
            "byteLength" : 17280,
            "byteOffset" : 74360
        },
        {
            "buffer" : 0,
            "byteLength" : 17028,
            "byteOffset" : 91640
        },
        {
            "buffer" : 0,
            "byteLength" : 48,
            "byteOffset" : 108668
        },
        {
            "buffer" : 0,
            "byteLength" : 48,
            "byteOffset" : 108716
        },
        {
            "buffer" : 0,
            "byteLength" : 12,
            "byteOffset" : 108764
        },
        {
            "buffer" : 0,
            "byteLength" : 48,
            "byteOffset" : 108776
        },
        {
            "buffer" : 0,
            "byteLength" : 48,
            "byteOffset" : 108824
        },
        {
            "buffer" : 0,
            "byteLength" : 252,
            "byteOffset" : 108872
        },
        {
            "buffer" : 0,
            "byteLength" : 756,
            "byteOffset" : 109124
        },
        {
            "buffer" : 0,
            "byteLength" : 756,
            "byteOffset" : 109880
        },
        {
            "buffer" : 0,
            "byteLength" : 756,
            "byteOffset" : 110636
        },
        {
            "buffer" : 0,
            "byteLength" : 756,
            "byteOffset" : 111392
        }
    ],
    "buffers" : [
        {
            "byteLength" : 112148,
            "uri" : "data:application/octet-stream;base64,"
        }
    ]
}
