{
    "asset" : {
        "generator" : "Khronos glTF Blender I/O v1.4.40",
        "version" : "2.0"
    },
    "scene" : 0,
    "scenes" : [
        {
            "name" : "Scene",
            "nodes" : [
                1
            ]
        }
    ],
    "nodes" : [
        {
            "mesh" : 0,
            "name" : "Cube",
            "scale" : [
                1.536102056503296,
                1.536102056503296,
                1.536102056503296
            ],
            "translation" : [
                -0.6090526580810547,
                2.2988834381103516,
                -0.5865252017974854
            ]
        },
        {
            "children" : [
                0
            ],
            "mesh" : 1,
            "name" : "Plane",
            "translation" : [
                0.6090526580810547,
                -2.2988834381103516,
                0.5865252017974854
            ]
        }
    ],
    "materials" : [
        {
            "doubleSided" : true,
            "name" : "Material",
            "pbrMetallicRoughness" : {
                "baseColorTexture" : {
                    "index" : 0,
                    "texCoord" : 0
                },
                "metallicFactor" : 0,
                "roughnessFactor" : 0.4000000059604645
            }
        },
        {
            "doubleSided" : true,
            "name" : "Material.001",
            "pbrMetallicRoughness" : {
                "baseColorTexture" : {
                    "index" : 1,
                    "texCoord" : 0
                },
                "metallicFactor" : 0,
                "roughnessFactor" : 0.5
            }
        }
    ],
    "meshes" : [
        {
            "name" : "Cube",
            "primitives" : [
                {
                    "attributes" : {
                        "POSITION" : 0,
                        "NORMAL" : 1,
                        "TEXCOORD_0" : 2
                    },
                    "indices" : 3,
                    "material" : 0
                }
            ]
        },
        {
            "name" : "Plane",
            "primitives" : [
                {
                    "attributes" : {
                        "POSITION" : 4,
                        "NORMAL" : 5,
                        "TEXCOORD_0" : 6
                    },
                    "indices" : 7,
                    "material" : 1
                }
            ]
        }
    ],
    "textures" : [
        {
            "sampler" : 0,
            "source" : 0
        },
        {
            "sampler" : 0,
            "source" : 1
        }
    ],
    "images" : [
        {
            "bufferView" : 4,
            "mimeType" : "image/jpeg",
            "name" : "gold"
        },
        {
            "bufferView" : 9,
            "mimeType" : "image/jpeg",
            "name" : "Grass"
        }
    ],
    "accessors" : [
        {
            "bufferView" : 0,
            "componentType" : 5126,
            "count" : 2334,
            "max" : [
                24.977554321289062,
                11.93973445892334,
                2.4912338256835938
            ],
            "min" : [
                -1,
                -1.0000009536743164,
                -50.365867614746094
            ],
            "type" : "VEC3"
        },
        {
            "bufferView" : 1,
            "componentType" : 5126,
            "count" : 2334,
            "type" : "VEC3"
        },
        {
            "bufferView" : 2,
            "componentType" : 5126,
            "count" : 2334,
            "type" : "VEC2"
        },
        {
            "bufferView" : 3,
            "componentType" : 5123,
            "count" : 3504,
            "type" : "SCALAR"
        },
        {
            "bufferView" : 5,
            "componentType" : 5126,
            "count" : 130,
            "max" : [
                97.0876235961914,
                24.631847381591797,
                95.70989227294922
            ],
            "min" : [
                -98.60790252685547,
                2.098947525024414,
                -101.01372528076172
            ],
            "type" : "VEC3"
        },
        {
            "bufferView" : 6,
            "componentType" : 5126,
            "count" : 130,
            "type" : "VEC3"
        },
        {
            "bufferView" : 7,
            "componentType" : 5126,
            "count" : 130,
            "type" : "VEC2"
        },
        {
            "bufferView" : 8,
            "componentType" : 5123,
            "count" : 648,
            "type" : "SCALAR"
        }
    ],
    "bufferViews" : [
        {
            "buffer" : 0,
            "byteLength" : 28008,
            "byteOffset" : 0
        },
        {
            "buffer" : 0,
            "byteLength" : 28008,
            "byteOffset" : 28008
        },
        {
            "buffer" : 0,
            "byteLength" : 18672,
            "byteOffset" : 56016
        },
        {
            "buffer" : 0,
            "byteLength" : 7008,
            "byteOffset" : 74688
        },
        {
            "buffer" : 0,
            "byteLength" : 66872,
            "byteOffset" : 81696
        },
        {
            "buffer" : 0,
            "byteLength" : 1560,
            "byteOffset" : 148568
        },
        {
            "buffer" : 0,
            "byteLength" : 1560,
            "byteOffset" : 150128
        },
        {
            "buffer" : 0,
            "byteLength" : 1040,
            "byteOffset" : 151688
        },
        {
            "buffer" : 0,
            "byteLength" : 1296,
            "byteOffset" : 152728
        },
        {
            "buffer" : 0,
            "byteLength" : 579387,
            "byteOffset" : 154024
        }
    ],
    "samplers" : [
        {
            "magFilter" : 9729,
            "minFilter" : 9986
        }
    ],
    "buffers" : [
        {
            "byteLength" : 733412,
            "uri" : "data:application/octet-stream;base64,"
        }
    ]
}
