{
    "asset" : {
        "generator" : "Khronos glTF Blender I/O v1.4.40",
        "version" : "2.0"
    },
    "scene" : 0,
    "scenes" : [
        {
            "name" : "Scene",
            "nodes" : [
                0
            ]
        }
    ],
    "nodes" : [
        {
            "mesh" : 0,
            "name" : "Cube",
            "rotation" : [
                -0.9999619126319885,
                -0.008726561442017555,
                0,
                -1.144567329802726e-09
            ],
            "scale" : [
                1.6221846342086792,
                1.6221846342086792,
                1.6221845149993896
            ]
        }
    ],
    "materials" : [
        {
            "doubleSided" : true,
            "name" : "Material",
            "pbrMetallicRoughness" : {
                "baseColorTexture" : {
                    "index" : 0,
                    "texCoord" : 0
                },
                "metallicFactor" : 0,
                "roughnessFactor" : 0.4000000059604645
            }
        }
    ],
    "meshes" : [
        {
            "name" : "Cube",
            "primitives" : [
                {
                    "attributes" : {
                        "POSITION" : 0,
                        "NORMAL" : 1,
                        "TEXCOORD_0" : 2
                    },
                    "indices" : 3,
                    "material" : 0
                }
            ]
        }
    ],
    "textures" : [
        {
            "sampler" : 0,
            "source" : 0
        }
    ],
    "images" : [
        {
            "bufferView" : 4,
            "mimeType" : "image/jpeg",
            "name" : "brick"
        }
    ],
    "accessors" : [
        {
            "bufferView" : 0,
            "componentType" : 5126,
            "count" : 2424,
            "max" : [
                24.735332489013672,
                1.8584709167480469,
                12.998150825500488
            ],
            "min" : [
                -15.827455520629883,
                -28.723247528076172,
                -14.32761287689209
            ],
            "type" : "VEC3"
        },
        {
            "bufferView" : 1,
            "componentType" : 5126,
            "count" : 2424,
            "type" : "VEC3"
        },
        {
            "bufferView" : 2,
            "componentType" : 5126,
            "count" : 2424,
            "type" : "VEC2"
        },
        {
            "bufferView" : 3,
            "componentType" : 5123,
            "count" : 3648,
            "type" : "SCALAR"
        }
    ],
    "bufferViews" : [
        {
            "buffer" : 0,
            "byteLength" : 29088,
            "byteOffset" : 0
        },
        {
            "buffer" : 0,
            "byteLength" : 29088,
            "byteOffset" : 29088
        },
        {
            "buffer" : 0,
            "byteLength" : 19392,
            "byteOffset" : 58176
        },
        {
            "buffer" : 0,
            "byteLength" : 7296,
            "byteOffset" : 77568
        },
        {
            "buffer" : 0,
            "byteLength" : 263324,
            "byteOffset" : 84864
        }
    ],
    "samplers" : [
        {
            "magFilter" : 9729,
            "minFilter" : 9986
        }
    ],
    "buffers" : [
        {
            "byteLength" : 348188,
            "uri" : "data:application/octet-stream;base64,"
        }
    ]
}
