{
    "asset" : {
        "generator" : "Khronos glTF Blender I/O v1.4.40",
        "version" : "2.0"
    },
    "scene" : 0,
    "scenes" : [
        {
            "name" : "Scene",
            "nodes" : [
                2
            ]
        }
    ],
    "nodes" : [
        {
            "mesh" : 0,
            "name" : "Cube.018",
            "rotation" : [
                0.7071066498756409,
                0,
                -0.70710688829422,
                -6.185756973309253e-08
            ],
            "scale" : [
                -0.7756815552711487,
                -2.6768362522125244,
                -0.5406498908996582
            ],
            "translation" : [
                -0.2521001696586609,
                -0.9996675848960876,
                0
            ]
        },
        {
            "children" : [
                0
            ],
            "mesh" : 1,
            "name" : "Cube.015",
            "scale" : [
                -0.08453498035669327,
                -0.017073823139071465,
                -0.05892086774110794
            ]
        },
        {
            "children" : [
                1
            ],
            "name" : "Empty"
        }
    ],
    "materials" : [
        {
            "doubleSided" : true,
            "name" : "teff",
            "pbrMetallicRoughness" : {
                "baseColorFactor" : [
                    0,
                    0,
                    0,
                    1
                ],
                "metallicFactor" : 0.2863636314868927,
                "roughnessFactor" : 0.5
            }
        }
    ],
    "meshes" : [
        {
            "name" : "Cube.035",
            "primitives" : [
                {
                    "attributes" : {
                        "POSITION" : 0,
                        "NORMAL" : 1,
                        "TEXCOORD_0" : 2
                    },
                    "indices" : 3,
                    "material" : 0
                }
            ]
        },
        {
            "name" : "Cube.031",
            "primitives" : [
                {
                    "attributes" : {
                        "POSITION" : 4,
                        "NORMAL" : 5,
                        "TEXCOORD_0" : 6
                    },
                    "indices" : 7,
                    "material" : 0
                }
            ]
        }
    ],
    "accessors" : [
        {
            "bufferView" : 0,
            "componentType" : 5126,
            "count" : 789,
            "max" : [
                1.002028465270996,
                9.491950186202303e-05,
                1.9947657585144043
            ],
            "min" : [
                -0.9979715347290039,
                -1.999904990196228,
                -0.005234172567725182
            ],
            "type" : "VEC3"
        },
        {
            "bufferView" : 1,
            "componentType" : 5126,
            "count" : 789,
            "type" : "VEC3"
        },
        {
            "bufferView" : 2,
            "componentType" : 5126,
            "count" : 789,
            "type" : "VEC2"
        },
        {
            "bufferView" : 3,
            "componentType" : 5123,
            "count" : 1494,
            "type" : "SCALAR"
        },
        {
            "bufferView" : 4,
            "componentType" : 5126,
            "count" : 76,
            "max" : [
                1,
                1,
                1
            ],
            "min" : [
                -1,
                -1,
                -1
            ],
            "type" : "VEC3"
        },
        {
            "bufferView" : 5,
            "componentType" : 5126,
            "count" : 76,
            "type" : "VEC3"
        },
        {
            "bufferView" : 6,
            "componentType" : 5126,
            "count" : 76,
            "type" : "VEC2"
        },
        {
            "bufferView" : 7,
            "componentType" : 5123,
            "count" : 186,
            "type" : "SCALAR"
        }
    ],
    "bufferViews" : [
        {
            "buffer" : 0,
            "byteLength" : 9468,
            "byteOffset" : 0
        },
        {
            "buffer" : 0,
            "byteLength" : 9468,
            "byteOffset" : 9468
        },
        {
            "buffer" : 0,
            "byteLength" : 6312,
            "byteOffset" : 18936
        },
        {
            "buffer" : 0,
            "byteLength" : 2988,
            "byteOffset" : 25248
        },
        {
            "buffer" : 0,
            "byteLength" : 912,
            "byteOffset" : 28236
        },
        {
            "buffer" : 0,
            "byteLength" : 912,
            "byteOffset" : 29148
        },
        {
            "buffer" : 0,
            "byteLength" : 608,
            "byteOffset" : 30060
        },
        {
            "buffer" : 0,
            "byteLength" : 372,
            "byteOffset" : 30668
        }
    ],
    "buffers" : [
        {
            "byteLength" : 31040,
            "uri" : "data:application/octet-stream;base64,"
        }
    ]
}
